<svg xmlns="http://www.w3.org/2000/svg" viewBox="0 0 662 531"><defs><style>.cls-1{fill:#272727;}.cls-2{fill:#999;}.cls-3{fill:red;}.cls-4{fill:#29abe2;}.cls-5{fill:#8cc63f;}.cls-6{fill:#fcee21;}.cls-7{fill:#ccc;}.cls-8{fill:#31a9b8;opacity:0.6;}.cls-9{fill:#fff;}</style></defs><title>Asset 2</title><g id="Layer_2" data-name="Layer 2"><g id="Layer_1-2" data-name="Layer 1"><polygon class="cls-1" points="662 493 58 359 58 0 662 134 662 493"/><polygon class="cls-2" points="156 382 58 359 58 0 156 23 156 382"/><path class="cls-3" d="M167,45.75h0a7.43,7.43,0,0,1,9.18-7.22l29.14,7.06A7.42,7.42,0,0,1,211,52.81h0A7.43,7.43,0,0,1,201.82,60L172.68,53A7.43,7.43,0,0,1,167,45.75Z"/><path class="cls-4" d="M167,71.71v0a7.43,7.43,0,0,1,9.13-7.23l73.14,17.17A7.42,7.42,0,0,1,255,88.85v0a7.44,7.44,0,0,1-9.13,7.24L172.73,78.94A7.42,7.42,0,0,1,167,71.71Z"/><path class="cls-4" d="M167,95.71v0a7.43,7.43,0,0,1,9.13-7.23l73.14,17.17a7.42,7.42,0,0,1,5.73,7.23v0a7.44,7.44,0,0,1-9.13,7.24l-73.14-17.17A7.42,7.42,0,0,1,167,95.71Z"/><path class="cls-5" d="M167,120.69v0a7.42,7.42,0,0,1,9.1-7.23l178.15,41.21a7.44,7.44,0,0,1,5.75,7.24v0a7.43,7.43,0,0,1-9.1,7.24L172.75,127.93A7.44,7.44,0,0,1,167,120.69Z"/><path class="cls-4" d="M167,144.71v0a7.43,7.43,0,0,1,9.13-7.23l73.14,17.17a7.42,7.42,0,0,1,5.73,7.23v0a7.44,7.44,0,0,1-9.13,7.24l-73.14-17.17A7.42,7.42,0,0,1,167,144.71Z"/><path class="cls-6" d="M167,170.71v0a7.42,7.42,0,0,1,9.12-7.23l282.15,66.17a7.42,7.42,0,0,1,5.73,7.23v0a7.43,7.43,0,0,1-9.12,7.23L172.73,177.94A7.42,7.42,0,0,1,167,170.71Z"/><path class="cls-4" d="M167,198.71v0a7.43,7.43,0,0,1,9.13-7.23l73.14,17.17a7.42,7.42,0,0,1,5.73,7.23v0a7.44,7.44,0,0,1-9.13,7.24l-73.14-17.17A7.42,7.42,0,0,1,167,198.71Z"/><path class="cls-5" d="M167,225.69v0a7.42,7.42,0,0,1,9.1-7.23l178.15,41.21a7.44,7.44,0,0,1,5.75,7.24v0a7.43,7.43,0,0,1-9.1,7.24L172.75,232.93A7.44,7.44,0,0,1,167,225.69Z"/><path class="cls-5" d="M167,252.69v0a7.42,7.42,0,0,1,9.1-7.23l178.15,41.21a7.44,7.44,0,0,1,5.75,7.24v0a7.43,7.43,0,0,1-9.1,7.24L172.75,259.93A7.44,7.44,0,0,1,167,252.69Z"/><path class="cls-6" d="M167,278.71v0a7.42,7.42,0,0,1,9.12-7.23l282.15,66.17a7.42,7.42,0,0,1,5.73,7.23v0a7.43,7.43,0,0,1-9.12,7.23L172.73,285.94A7.42,7.42,0,0,1,167,278.71Z"/><path class="cls-4" d="M167,303.71v0a7.43,7.43,0,0,1,9.13-7.23l73.14,17.17a7.42,7.42,0,0,1,5.73,7.23v0a7.44,7.44,0,0,1-9.13,7.24l-73.14-17.17A7.42,7.42,0,0,1,167,303.71Z"/><path class="cls-3" d="M167,330.75h0a7.43,7.43,0,0,1,9.18-7.22l29.14,7.06a7.42,7.42,0,0,1,5.68,7.22h0a7.43,7.43,0,0,1-9.18,7.22L172.68,338A7.43,7.43,0,0,1,167,330.75Z"/><path class="cls-7" d="M264,120.75h0a7.43,7.43,0,0,1,9.18-7.22l29.14,7.06a7.42,7.42,0,0,1,5.68,7.22h0a7.43,7.43,0,0,1-9.18,7.22L269.68,128A7.43,7.43,0,0,1,264,120.75Z"/><polygon class="cls-8" points="604 531 0 397 0 38 604 172 604 531"/><path class="cls-7" d="M264,167.75h0a7.43,7.43,0,0,1,9.18-7.22l29.14,7.06a7.42,7.42,0,0,1,5.68,7.22h0a7.43,7.43,0,0,1-9.18,7.22L269.68,175A7.43,7.43,0,0,1,264,167.75Z"/><path class="cls-7" d="M264,222.75h0a7.43,7.43,0,0,1,9.18-7.22l29.14,7.06a7.42,7.42,0,0,1,5.68,7.22h0a7.43,7.43,0,0,1-9.18,7.22L269.68,230A7.43,7.43,0,0,1,264,222.75Z"/><path class="cls-7" d="M368,299.75h0a7.43,7.43,0,0,1,9.18-7.22l29.14,7.06a7.42,7.42,0,0,1,5.68,7.22h0a7.43,7.43,0,0,1-9.18,7.22L373.68,307A7.43,7.43,0,0,1,368,299.75Z"/><path class="cls-7" d="M474,242.75h0a7.43,7.43,0,0,1,9.18-7.22l29.14,7.06a7.42,7.42,0,0,1,5.68,7.22h0a7.43,7.43,0,0,1-9.18,7.22L479.68,250A7.43,7.43,0,0,1,474,242.75Z"/><path class="cls-7" d="M474,352.75h0a7.43,7.43,0,0,1,9.18-7.22l29.14,7.06a7.42,7.42,0,0,1,5.68,7.22h0a7.43,7.43,0,0,1-9.18,7.22L479.68,360A7.43,7.43,0,0,1,474,352.75Z"/><path class="cls-7" d="M264,326.75h0a7.43,7.43,0,0,1,9.18-7.22l29.14,7.06a7.42,7.42,0,0,1,5.68,7.22h0a7.43,7.43,0,0,1-9.18,7.22L269.68,334A7.43,7.43,0,0,1,264,326.75Z"/><path class="cls-9" d="M63,20.71v0a7.43,7.43,0,0,1,9.13-7.23l73.14,17.17A7.42,7.42,0,0,1,151,37.85v0a7.44,7.44,0,0,1-9.13,7.24L68.73,27.94A7.42,7.42,0,0,1,63,20.71Z"/></g></g></svg>