<svg xmlns="http://www.w3.org/2000/svg" xmlns:xlink="http://www.w3.org/1999/xlink" viewBox="0 0 598 483.5"><defs><style>.cls-1{fill:#52c16c;}.cls-2{fill:#258039;}.cls-3{fill:url(#linear-gradient);}.cls-4{fill:none;stroke:#fff;stroke-miterlimit:10;stroke-width:9px;}</style><linearGradient id="linear-gradient" x1="21.5" y1="152" x2="579.5" y2="152" gradientTransform="translate(148.5 452.5) rotate(-90)" gradientUnits="userSpaceOnUse"><stop offset="0" stop-color="#1a1a1a"/><stop offset="1" stop-color="#258039"/></linearGradient></defs><title>Asset 2</title><g id="Layer_2" data-name="Layer 2"><g id="Layer_1-2" data-name="Layer 1"><polygon class="cls-1" points="407 438 192 438 207.5 371.5 391.5 371.5 407 438"/><polygon class="cls-2" points="430 471 169 471 192 438 407 438 430 471"/><path d="M19.88,0H578.12A19.88,19.88,0,0,1,598,19.88V303a0,0,0,0,1,0,0H0a0,0,0,0,1,0,0V19.88A19.88,19.88,0,0,1,19.88,0Z"/><rect class="cls-3" x="169" y="-127" width="263" height="558" transform="translate(452.5 -148.5) rotate(90)"/><path class="cls-2" d="M578.12,371H19.88A19.88,19.88,0,0,1,0,351.12V303H598v48.12A19.88,19.88,0,0,1,578.12,371Z"/><rect x="168.5" y="471.5" width="261" height="12"/><polygon class="cls-4" points="388.85 196.82 214.91 196.82 207.98 90.37 428.66 90.37 388.85 196.82"/><polyline class="cls-4" points="466.59 53.24 440.63 61.03 428.51 90.45 388.7 196.9 375.72 229.78 221.84 229.78"/><circle class="cls-4" cx="223.17" cy="246.32" r="16.45"/><circle class="cls-4" cx="375.84" cy="246.32" r="16.45"/><line class="cls-4" x1="208.62" y1="109.25" x2="421.76" y2="109.25"/><line class="cls-4" x1="210.77" y1="143.58" x2="409.6" y2="143.58"/><line class="cls-4" x1="209.34" y1="126.41" x2="415.32" y2="126.41"/><line class="cls-4" x1="213.63" y1="160.74" x2="402.45" y2="160.74"/><line class="cls-4" x1="212.2" y1="179.34" x2="395.29" y2="179.34"/></g></g></svg>