<svg xmlns="http://www.w3.org/2000/svg" xmlns:xlink="http://www.w3.org/1999/xlink" viewBox="0 0 870.78 680.53"><defs><style>.cls-1{fill:#25628b;}.cls-2{fill:url(#linear-gradient);}</style><linearGradient id="linear-gradient" x1="-392.97" y1="347.42" x2="608.21" y2="270.26" gradientUnits="userSpaceOnUse"><stop offset="0" stop-color="#fff" stop-opacity="0"/><stop offset="1" stop-color="#25628b"/></linearGradient></defs><title>Asset 1</title><g id="Layer_2" data-name="Layer 2"><g id="Layer_1-2" data-name="Layer 1"><text/><path d="M369.38,489.81,868,15.7A9.1,9.1,0,0,0,856.09,1.92L313,424.52c-4.83,4.17,3.71,22,19.06,39.75S364.55,494,369.38,489.81Z"/><path d="M307.53,429.43l.7-.8A3.83,3.83,0,0,0,307.53,429.43Z"/><path d="M267.27,553.11,363.9,494.4c-6.23,3.5-22.66-7-37.63-24.36-14.82-17.16-22.84-34.78-18.74-40.61l-74.08,84.21-.17.11c-3.77,3.25.79,14.7,10.17,25.57S263.5,556.36,267.27,553.11Z"/><polygon class="cls-1" points="715.3 480.08 243.3 480.08 285.3 394.08 676.3 394.08 715.3 480.08"/><path class="cls-1" d="M286.51,165.85V394.5H677.09V165.85Zm380.58,218.3H296.51V175.85H667.09Z"/><polygon points="280.3 440.5 298.79 405.5 664.41 405.5 680.27 440.5 280.3 440.5"/><rect x="244.3" y="480.5" width="472" height="19"/><polygon points="557.3 472.5 407.3 472.5 415.3 448.5 548.3 448.5 557.3 472.5"/><rect class="cls-2" x="296.3" y="175.5" width="371" height="209"/><path d="M254.23,601.84a61.74,61.74,0,0,0-36.94-79.12S141.51,490.05,93.09,591c-38.85,81-75.28,77.64-88.17,73.13,22.6,9.79,119.8,44.35,224.76-31.55h0A61.45,61.45,0,0,0,254.23,601.84Z"/><path d="M4.92,664.16C1.71,662.77,0,661.87,0,661.87A23.4,23.4,0,0,0,4.92,664.16Z"/></g></g></svg>