<svg xmlns="http://www.w3.org/2000/svg" xmlns:xlink="http://www.w3.org/1999/xlink" viewBox="0 0 786.72 594.5"><defs><style>.cls-1{fill:#f5be41;}.cls-2{fill:gray;}.cls-3{fill:#c7b299;}.cls-4{fill:#333;}.cls-5,.cls-6{fill:#fff;}.cls-6{stroke:#fff;stroke-miterlimit:10;}.cls-7{fill:url(#linear-gradient);}.cls-8{fill:url(#linear-gradient-2);}.cls-9{fill:url(#linear-gradient-3);}</style><linearGradient id="linear-gradient" x1="193.71" y1="586.23" x2="239.25" y2="586.23" gradientTransform="translate(628.84 891.49) rotate(180)" gradientUnits="userSpaceOnUse"><stop offset="0" stop-color="#fff" stop-opacity="0"/><stop offset="1" stop-color="#f5be41" stop-opacity="0.5"/></linearGradient><linearGradient id="linear-gradient-2" x1="204.14" y1="566.55" x2="249.67" y2="566.55" gradientTransform="translate(-191.19 531.44) rotate(-90)" xlink:href="#linear-gradient"/><linearGradient id="linear-gradient-3" x1="571.5" y1="252.86" x2="166.66" y2="250.75" gradientUnits="userSpaceOnUse"><stop offset="0"/><stop offset="1" stop-color="#f5be41"/></linearGradient></defs><title>Asset 4</title><g id="Layer_2" data-name="Layer 2"><g id="Layer_1-2" data-name="Layer 1"><rect class="cls-1" x="389.22" y="-90.63" width="45.54" height="791.2" transform="translate(-81.17 444.75) rotate(-52.34)"/><rect class="cls-2" x="62.54" y="33.83" width="45.54" height="37.95" transform="translate(179.24 17.54) rotate(127.66)"/><polygon class="cls-3" points="711.23 564.72 739.05 528.67 786.72 594.23 786.72 594.23 711.23 564.72"/><polygon class="cls-4" points="771.92 588.56 777.49 581.35 786.72 594.23 786.72 594.23 771.92 588.56"/><rect class="cls-5" x="32.5" y="10.64" width="45.54" height="37.95" transform="matrix(-0.61, 0.79, -0.79, -0.61, 112.49, 3.96)"/><line class="cls-6" x1="111.24" y1="44.06" x2="83.41" y2="80.1"/><line class="cls-6" x1="105.98" y1="40" x2="78.16" y2="76.04"/><line class="cls-6" x1="101.48" y1="36.52" x2="73.65" y2="72.57"/><line class="cls-6" x1="96.97" y1="33.04" x2="69.14" y2="69.09"/><line class="cls-6" x1="92.46" y1="29.56" x2="64.64" y2="65.61"/><line class="cls-6" x1="87.96" y1="26.09" x2="60.13" y2="62.13"/><rect x="415.95" y="-101.87" width="13.28" height="789.3" transform="translate(-67.39 448.4) rotate(-52.34)"/><rect x="396.24" y="-76.34" width="13.28" height="789.3" transform="translate(-95.27 442.73) rotate(-52.34)"/><rect class="cls-7" x="389.59" y="-88.45" width="45.54" height="787.41" transform="translate(-81.25 445.16) rotate(-52.34)"/><rect class="cls-1" x="-20.86" y="282.48" width="791.2" height="45.54" transform="translate(-108.42 292.58) rotate(-37.66)"/><rect class="cls-2" x="678.66" y="34.12" width="45.54" height="37.95" transform="translate(1087.98 640.79) rotate(-127.66)"/><polygon class="cls-3" points="47.67 528.94 75.49 564.99 0 594.5 0 594.5 47.67 528.94"/><polygon class="cls-4" points="9.23 581.62 14.8 588.83 0 594.5 0 594.5 9.23 581.62"/><rect class="cls-5" x="708.7" y="10.93" width="45.54" height="37.95" transform="translate(1154.73 627.21) rotate(-127.66)"/><line class="cls-6" x1="703.32" y1="80.39" x2="675.5" y2="44.34"/><line class="cls-6" x1="708.58" y1="76.33" x2="680.75" y2="40.28"/><line class="cls-6" x1="713.08" y1="72.85" x2="685.26" y2="36.81"/><line class="cls-6" x1="717.59" y1="69.38" x2="689.77" y2="33.33"/><line class="cls-6" x1="722.1" y1="65.9" x2="694.27" y2="29.85"/><line class="cls-6" x1="726.6" y1="62.42" x2="698.78" y2="26.37"/><rect x="-10.8" y="311.95" width="789.3" height="13.28" transform="translate(-114.68 300.93) rotate(-37.66)"/><rect x="-30.51" y="286.42" width="789.3" height="13.28" transform="translate(-103.18 283.56) rotate(-37.66)"/><rect class="cls-8" x="-18.34" y="281.77" width="787.41" height="45.54" transform="translate(-107.86 292.82) rotate(-37.66)"/><path class="cls-1" d="M197.44,137.77V366.43H588V137.77ZM578,356.08H207.44V147.77H578Z"/><polygon class="cls-1" points="627.23 452.43 155.23 452.43 197.23 366.43 588.23 366.43 627.23 452.43"/><polygon points="191.23 412.43 209.72 377.43 575.34 377.43 591.2 412.43 191.23 412.43"/><rect x="155.23" y="452.43" width="472" height="19"/><polygon points="468.23 444.43 318.23 444.43 326.23 420.43 459.23 420.43 468.23 444.43"/><rect class="cls-9" x="207.23" y="147.43" width="371" height="209"/></g></g></svg>