<svg xmlns="http://www.w3.org/2000/svg" xmlns:xlink="http://www.w3.org/1999/xlink" viewBox="0 0 428 428"><defs><style>.cls-1{fill:url(#radial-gradient);}</style><radialGradient id="radial-gradient" cx="-178.99" cy="-186.46" r="1118.39" gradientUnits="userSpaceOnUse"><stop offset="0" stop-color="#cf3721"/><stop offset="0.09" stop-color="#d13f29"/><stop offset="0.24" stop-color="#d65340"/><stop offset="0.43" stop-color="#de7566"/><stop offset="0.64" stop-color="#e9a399"/><stop offset="0.88" stop-color="#f7dedb"/><stop offset="1" stop-color="#fff"/></radialGradient></defs><title>Asset 2</title><g id="Layer_2" data-name="Layer 2"><g id="Layer_1-2" data-name="Layer 1"><path class="cls-1" d="M214.73,174.15a46.32,46.32,0,0,0-43.6,0,39.43,39.43,0,0,0-15.22,15.23,46,46,0,0,0,0,43.77,39.4,39.4,0,0,0,15.22,15.22,46.32,46.32,0,0,0,43.6,0A39.4,39.4,0,0,0,230,233.15a46,46,0,0,0,0-43.77A39.43,39.43,0,0,0,214.73,174.15Z"/><path class="cls-1" d="M344.91,0H83.09A83.33,83.33,0,0,0,0,83.09V344.91A83.33,83.33,0,0,0,83.09,428H344.91A83.33,83.33,0,0,0,428,344.91V83.09A83.33,83.33,0,0,0,344.91,0Zm-239,271.81H84.29V179.43h21.62Zm-.77-111.5a13.48,13.48,0,0,1-10,3.9,13.88,13.88,0,0,1-9.86-3.72,12.75,12.75,0,0,1,0-18.51,13.88,13.88,0,0,1,9.86-3.72,14.29,14.29,0,0,1,9.86,3.54,11.46,11.46,0,0,1,4,8.91A13,13,0,0,1,105.14,160.31Zm144.54,83a59.93,59.93,0,0,1-23.36,22.23,69.1,69.1,0,0,1-33.39,8,69.1,69.1,0,0,1-33.39-8,59.56,59.56,0,0,1-23.35-22.32,64.32,64.32,0,0,1,0-63.84A59.54,59.54,0,0,1,159.54,157,69,69,0,0,1,192.93,149,69,69,0,0,1,226.32,157a59.79,59.79,0,0,1,23.36,22.23,64.7,64.7,0,0,1,0,64Zm113.4,12.45q-5.46,8.13-16.53,13t-27,4.84a92.49,92.49,0,0,1-27.08-4q-13.07-4-20.67-10.55l7.78-17.47a61.4,61.4,0,0,0,18.26,9.6,66.29,66.29,0,0,0,21.71,3.72q13.49,0,20.15-4.33t6.66-11.41a11.06,11.06,0,0,0-3.72-8.57,26.1,26.1,0,0,0-9.43-5.28q-5.7-1.89-15.57-4.32a181.91,181.91,0,0,1-22.4-6.57,36.93,36.93,0,0,1-14.71-10.3q-6.14-7-6.14-18.94a32.33,32.33,0,0,1,5.45-18.25q5.46-8.22,16.44-13.06T323.2,149a87.22,87.22,0,0,1,21.8,2.77,60.37,60.37,0,0,1,18.51,8l-7.09,17.47a70.15,70.15,0,0,0-16.61-7.09A61.93,61.93,0,0,0,323,167.67q-13.33,0-19.81,4.49t-6.49,11.94a10.8,10.8,0,0,0,3.72,8.48,26.89,26.89,0,0,0,9.43,5.19q5.7,1.9,15.57,4.32a164.57,164.57,0,0,1,22.14,6.49,37.9,37.9,0,0,1,14.79,10.29q6.15,6.93,6.15,18.69A31.91,31.91,0,0,1,363.08,255.72Z"/></g></g></svg>