<svg xmlns="http://www.w3.org/2000/svg" viewBox="0 0 714.26 465.15"><defs><style>.cls-1{fill:#272727;}.cls-2{fill:#c69c6d;}.cls-3{fill:#258039;}.cls-4{fill:#f5be41;}.cls-5{fill:#31a9b8;}.cls-6{fill:#cf3721;}.cls-7{fill:#fff;}</style></defs><title>Asset 3</title><g id="Layer_2" data-name="Layer 2"><g id="Layer_1-2" data-name="Layer 1"><path class="cls-1" d="M610.65,255.22S640,194.14,691,255.14s-3-86-3-86l-39-39-58,24Z"/><path class="cls-1" d="M693.18,227.14l-13.18,38-62,12-17.42-50H0v27.21a121.2,121.2,0,0,0,19.9,67c.09.12.17.25.26.38C39,350,65.8,375.27,99.88,396.93c69.23,44,161.08,68.21,258.62,68.21l2.25,0q1.1,0,2.67,0c1.46,0,3.2,0,5.16-.08h.63v0c15-.47,43-3.06,69.63-14.64,39.74-17.3,62.27-48.65,65.14-90.66,2.47-36.17,8.89-62.48,19.08-78.2,6.94-10.7,15.27-15.9,25.48-15.9,17.55,0,34.69,14.79,34.85,14.92l.67.6.78.46c1.6,1,39.74,23.72,75.64,23.72h0c19.21,0,34.47-6.36,45.35-18.92h0A78.45,78.45,0,0,0,714,245.14v-18Z"/><path class="cls-2" d="M711,187.12C681,80.73,534.58,0,358.5,0,160.69,0,.34,101.89.34,227.57S160.69,455.14,358.5,455.14h.5v-.07s128,6.42,135-96c11-160.93,96-86,96-86S736,361.14,711,187.12Zm-62,73.09c-17.22,0-31.18-9.88-31.18-22.07s14-22.07,31.18-22.07,31.18,9.88,31.18,22.07S666.22,260.21,649,260.21Z"/><ellipse class="cls-3" cx="415.5" cy="65.14" rx="49.5" ry="31"/><ellipse class="cls-4" cx="250.5" cy="81.14" rx="49.5" ry="31"/><ellipse class="cls-5" cx="127.5" cy="156.14" rx="49.5" ry="31"/><ellipse class="cls-6" cx="134.5" cy="270.14" rx="49.5" ry="31"/><ellipse class="cls-7" cx="240.5" cy="362.14" rx="49.5" ry="31"/></g></g></svg>